<svg width="47" height="49" viewBox="0 0 47 49" fill="none" xmlns="http://www.w3.org/2000/svg">
<g clip-path="url(#clip0_1_89)">
<mask id="mask0_1_89" style="mask-type:luminance" maskUnits="userSpaceOnUse" x="0" y="0" width="47" height="49">
<path d="M47 0H0V49H47V0Z" fill="white"/>
</mask>
<g mask="url(#mask0_1_89)">
<path d="M46.0771 10.6745C44.9465 5.21662 42.5469 0 42.5469 0C42.4161 0.0452308 38.1938 1.68862 34.3021 4.10092C31.6564 5.74431 28.2569 8.22446 25.3112 11.5715C25.8958 12.348 26.4572 13.1622 26.9879 14.0065C26.9879 14.0065 26.9879 14.0065 26.9879 14.014C27.8724 15.4463 28.6261 16.9389 29.226 18.4542C30.0797 20.5951 30.6796 22.8642 31.0334 25.2614L37.7554 8.57877L40.2857 9.604L31.3641 31.9028C31.2949 33.7723 31.0949 35.7022 30.7642 37.6848C30.0951 41.7028 29.0183 45.0951 28.2262 47.2511C29.4875 46.5877 30.9411 45.7434 32.4793 44.7106C35.1404 42.924 37.4862 40.9414 39.4551 38.8231C41.9393 36.1394 43.8159 33.2295 45.0465 30.1689C46.2694 27.1008 46.9231 23.6632 46.9923 19.9468C47.0462 17.0068 46.7385 13.8858 46.0694 10.6669" fill="#95BB20"/>
</g>
<mask id="mask1_1_89" style="mask-type:luminance" maskUnits="userSpaceOnUse" x="0" y="0" width="47" height="49">
<path d="M47 0H0V49H47V0Z" fill="white"/>
</mask>
<g mask="url(#mask1_1_89)">
<path d="M26.6803 19.5548C26.142 18.1978 25.4575 16.856 24.6653 15.5669C21.3197 10.1468 16.3128 6.33983 12.7057 4.10091C8.80634 1.6886 4.58395 0.407063 4.4532 0.361832C4.29938 0.309063 4.4532 0.361832 4.29938 0.361832C4.29938 0.361832 2.06129 5.2166 0.930704 10.6744C0.261583 13.8934 -0.0460592 17.0143 8.71308e-05 19.9618C0.0693066 23.6783 0.723046 27.1158 1.94592 30.184C3.1688 33.2521 5.05311 36.162 7.53732 38.8457C9.50622 40.964 11.852 42.9466 14.5131 44.7332C18.0587 47.1078 21.1889 48.4949 22.4503 49.0075L8.11414 13.1169C8.11414 13.1169 8.69866 12.8681 9.40624 12.5591C10.1138 12.2575 10.706 12.0238 10.706 12.0238L25.0037 47.8994C25.6497 46.3615 27.1956 42.3284 28.0493 37.2023C29.1569 30.5458 28.6954 24.6055 26.6803 19.5472" fill="#95BB20"/>
</g>
</g>
<defs>
<clipPath id="clip0_1_89">
<rect width="47" height="49" fill="white"/>
</clipPath>
</defs>
</svg>
