<svg width="25" height="42" viewBox="0 0 25 42" fill="none" xmlns="http://www.w3.org/2000/svg">
<path fill-rule="evenodd" clip-rule="evenodd" d="M21.4195 12.5541H15.7528C15.5259 11.8044 15.2446 11.0941 14.9356 10.559L9.46073 1.06835C8.73282 -0.200031 7.53452 -0.200031 6.80077 1.06835L1.33098 10.559C0.596636 11.8266 0 14.0647 0 15.5295V26.4923C0 27.9572 1.19538 29.1561 2.66137 29.1561H8.32521C8.55234 29.9043 8.83277 30.6125 9.13962 31.1478L14.6144 40.6374C15.3467 41.9058 16.5436 41.9058 17.2751 40.6374L22.7477 31.1478C23.4785 29.8786 24.0781 27.6406 24.0781 26.1755V15.2186C24.0781 13.7537 22.8826 12.5541 21.4195 12.5541Z" fill="#40BFEF"/>
</svg>
